<?xml version="1.0" standalone="no"?>
<!DOCTYPE svg PUBLIC "-//W3C//DTD SVG 20010904//EN"
 "http://www.w3.org/TR/2001/REC-SVG-20010904/DTD/svg10.dtd">
<svg version="1.0" xmlns="http://www.w3.org/2000/svg"
 width="777.000000pt" height="777.000000pt" viewBox="0 0 777.000000 777.000000"
 preserveAspectRatio="xMidYMid meet">
<metadata>
Created by potrace 1.13, written by Peter Selinger 2001-2015
</metadata>
<g transform="translate(0.000000,777.000000) scale(0.100000,-0.100000)"
fill="#000000" stroke="none">
<path d="M1849 7756 c-102 -27 -190 -103 -238 -205 l-26 -56 -3 -347 -3 -348
-613 0 c-368 0 -634 -4 -666 -10 -74 -14 -137 -47 -192 -101 -54 -54 -81 -103
-97 -177 -16 -76 -16 -6148 0 -6224 29 -138 131 -242 268 -274 83 -20 7129
-20 7212 0 137 32 239 136 268 274 16 76 16 6148 0 6224 -30 142 -143 250
-289 278 -32 6 -298 10 -666 10 l-613 0 -3 348 -3 347 -32 66 c-100 202 -342
267 -529 143 -62 -42 -105 -96 -136 -174 -21 -52 -23 -72 -26 -392 l-3 -338
-1574 0 -1574 0 -3 338 c-3 320 -5 340 -26 392 -31 78 -74 132 -136 174 -90
60 -199 79 -297 52z"/>
</g>
</svg>
