<?xml version="1.0" encoding="utf-8"?>
<!DOCTYPE svg PUBLIC "-//W3C//DTD SVG 1.1//EN" "http://www.w3.org/Graphics/SVG/1.1/DTD/svg11.dtd">
<svg style="width:308px;height:308px;" version="1.1" id="图形" xmlns="http://www.w3.org/2000/svg" xmlns:xlink="http://www.w3.org/1999/xlink" x="0px" y="0px" width="1024px" height="1024px" viewBox="0 0 1024 1024" enable-background="new 0 0 1024 1024" xml:space="preserve">
  <path class="svgpath" data-index="path_0" fill="#000000" d="M511.287296 394.231808c-90.341376 0-163.84 73.498624-163.84 163.84s73.498624 163.84 163.84 163.84 163.84-73.498624 163.84-163.84S601.624576 394.231808 511.287296 394.231808z" />
<path class="svgpath" data-index="path_1" fill="#000000" d="M902.012928 273.399808l-193.2288 0-30.007296-116.67456c-4.112384-18.440192-20.815872-31.768576-39.931904-31.768576L383.717376 124.956672c-18.870272 0-35.221504 12.771328-39.71072 30.892032L313.79456 273.399808 120.56576 273.399808c-44.285952 0-80.314368 34.26304-80.314368 76.374016L40.251392 819.6096c0 42.115072 36.028416 76.378112 80.314368 76.378112l781.447168 0c44.285952 0 80.314368-34.26304 80.314368-76.378112L982.327296 349.773824C982.327296 307.662848 946.29888 273.399808 902.012928 273.399808zM226.77504 406.073344 151.822336 406.073344c-16.535552 0-29.94176-13.406208-29.94176-29.937664 0-16.535552 13.402112-29.937664 29.94176-29.937664l74.952704 0c16.535552 0 29.94176 13.406208 29.94176 29.937664C256.712704 392.667136 243.310592 406.073344 226.77504 406.073344zM511.287296 762.871808c-112.92672 0-204.8-91.87328-204.8-204.8s91.87328-204.8 204.8-204.8 204.8 91.87328 204.8 204.8S624.214016 762.871808 511.287296 762.871808z" />

</svg>
