<?xml version="1.0" encoding="utf-8"?>
<!DOCTYPE svg PUBLIC "-//W3C//DTD SVG 1.1//EN" "http://www.w3.org/Graphics/SVG/1.1/DTD/svg11.dtd">
<svg style="width:308px;height:308px;" version="1.1" id="图形" xmlns="http://www.w3.org/2000/svg" xmlns:xlink="http://www.w3.org/1999/xlink" x="0px" y="0px" width="1024px" height="1024px" viewBox="0 0 1024 1024" enable-background="new 0 0 1024 1024" xml:space="preserve">
  <path class="svgpath" data-index="path_0" fill="#000000" d="M662.257371 382.456686c0 32.885029-25.799314 59.2-58.199771 59.2-32.3712 0-58.686171-26.314971-58.686171-59.2 0-32.3712 26.314971-58.686171 58.686171-58.686171 4.0576 0 7.599543 1.514057 11.657143 2.027886-29.343086-20.743314-65.285486-33.400686-103.714743-33.400686-100.200229 0-181.141943 81.9712-181.141943 183.171657 0 100.657371 80.943543 182.628571 181.141943 182.628571 100.170971 0 181.114514-81.9712 181.114514-182.628571 0-38.970514-12.657371-75.399314-33.400686-104.7424C660.743314 374.8864 662.257371 378.428343 662.257371 382.456686zM1014.370743 457.857829C929.885257 303.029029 730.543543 146.715429 512 146.715429c-218.570971 0-417.914514 156.3136-501.886171 311.1424L0 475.5712l10.113829 17.685943C94.085486 647.572114 293.429029 804.399543 512 804.399543c218.543543 0 417.885257-156.829257 502.370743-311.1424l9.629257-17.685943L1014.370743 457.857829zM512 731.5712c-180.114286 0-350.628571-129.027657-428.542171-256 77.9136-127.5136 248.427886-256 428.542171-256 180.085029 0 350.599314 128.4864 428.514743 256C862.599314 602.543543 692.085029 731.5712 512 731.5712z" />

</svg>
