<?xml version="1.0" encoding="utf-8"?>
<!DOCTYPE svg PUBLIC "-//W3C//DTD SVG 1.1//EN" "http://www.w3.org/Graphics/SVG/1.1/DTD/svg11.dtd">
<svg style="width:308px;height:308px;" version="1.1" id="图形" xmlns="http://www.w3.org/2000/svg" xmlns:xlink="http://www.w3.org/1999/xlink" x="0px" y="0px" width="1024px" height="1024px" viewBox="0 0 1024 1024" enable-background="new 0 0 1024 1024" xml:space="preserve">
  <path class="svgpath" data-index="path_0" fill="#000000" d="M800.037628 928.016126 223.962372 928.016126c-52.980346 0-95.983874-43.003528-95.983874-95.983874l0-639.892491c0-52.980346 43.003528-95.983874 95.983874-95.983874l575.903242 0c52.980346 0 95.983874 43.003528 95.983874 95.983874l0 639.892491C896.021502 884.840585 852.84596 928.016126 800.037628 928.016126zM223.962372 159.973123c-17.545439 0-31.994625 14.449185-31.994625 31.994625l0 639.892491c0 17.717453 14.449185 31.994625 31.994625 31.994625l575.903242 0c17.717453 0 31.994625-14.277171 31.994625-31.994625l0-639.892491c0-17.545439-14.277171-31.994625-31.994625-31.994625L223.962372 159.973123z" />
<path class="svgpath" data-index="path_1" fill="#000000" d="M640.924576 544.768688 287.779607 544.768688c-17.717453 0-31.994625-14.277171-31.994625-31.994625 0-17.717453 14.277171-31.994625 31.994625-31.994625l353.144969 0c17.717453 0 31.994625 14.277171 31.994625 31.994625C672.9192 530.491517 658.642029 544.768688 640.924576 544.768688z" />
<path class="svgpath" data-index="path_2" fill="#000000" d="M734.84428 735.532337l-447.236687 0c-17.717453 0-31.994625-14.277171-31.994625-31.994625s14.277171-31.994625 31.994625-31.994625l447.236687 0c17.717453 0 31.994625 14.277171 31.994625 31.994625S752.561734 735.532337 734.84428 735.532337z" />
<path class="svgpath" data-index="path_3" fill="#000000" d="M255.784982 305.325046c0 26.490173 21.501764 47.991937 47.991937 47.991937s47.991937-21.501764 47.991937-47.991937-21.501764-47.991937-47.991937-47.991937S255.784982 278.834873 255.784982 305.325046z" />
<path class="svgpath" data-index="path_4" fill="#000000" d="M463.061986 305.325046c0 26.490173 21.501764 47.991937 47.991937 47.991937s47.991937-21.501764 47.991937-47.991937-21.501764-47.991937-47.991937-47.991937S463.061986 278.834873 463.061986 305.325046z" />
<path class="svgpath" data-index="path_5" fill="#000000" d="M671.199059 305.325046c0 26.490173 21.501764 47.991937 47.991937 47.991937s47.991937-21.501764 47.991937-47.991937-21.501764-47.991937-47.991937-47.991937S671.199059 278.834873 671.199059 305.325046z" />

</svg>
