<?xml version="1.0" encoding="utf-8"?>
<!DOCTYPE svg PUBLIC "-//W3C//DTD SVG 1.1//EN" "http://www.w3.org/Graphics/SVG/1.1/DTD/svg11.dtd">
<svg style="width:308px;height:308px;" version="1.1" id="图形" xmlns="http://www.w3.org/2000/svg" xmlns:xlink="http://www.w3.org/1999/xlink" x="0px" y="0px" width="1024px" height="1024px" viewBox="0 0 1024 1024" enable-background="new 0 0 1024 1024" xml:space="preserve">
  <path class="svgpath" data-index="path_0" fill="#000000" d="M512.002558 63.525825c-183.564759 0-332.393389 148.548244-332.393389 331.742567 0 183.193299 332.393389 565.205782 332.393389 565.205782s332.387249-382.013507 332.387249-565.205782C844.389808 212.073046 695.563224 63.525825 512.002558 63.525825L512.002558 63.525825zM711.432657 395.267369c0 109.909226-89.283466 199.045335-199.431122 199.045335-110.150726 0-199.437262-89.13611-199.437262-199.045335 0-109.929692 89.286536-199.046359 199.437262-199.046359C622.149191 196.222033 711.432657 285.332561 711.432657 395.267369L711.432657 395.267369zM711.432657 395.267369" />

</svg>
