<?xml version="1.0" encoding="utf-8"?>
<!DOCTYPE svg PUBLIC "-//W3C//DTD SVG 1.1//EN" "http://www.w3.org/Graphics/SVG/1.1/DTD/svg11.dtd">
<svg style="width:308px;height:308px;" version="1.1" id="图形" xmlns="http://www.w3.org/2000/svg" xmlns:xlink="http://www.w3.org/1999/xlink" x="0px" y="0px" width="1024px" height="1024px" viewBox="0 0 1024 1024" enable-background="new 0 0 1024 1024" xml:space="preserve">
  <path class="svgpath" data-index="path_0" fill="#000000" d="M932.534857 891.757714c0 0.036571 0 0.073143 0 0.109714 0 22.491429-17.664 40.704-39.424 40.704L130.852571 932.571429c-21.76 0-39.424-18.212571-39.424-40.704 0-0.036571 0-0.073143 0-0.109714L91.428571 891.757714c0 0 0-148.333714 104.96-202.276571 66.450286-34.121143 40.850286-6.436571 122.404571-41.362286 81.554286-34.852571 100.864-47.030857 100.864-47.030857l0.768-80.384c0 0-30.537143-24.137143-40.045714-99.730286-19.126857 5.705143-25.417143-23.186286-26.550857-41.545143C352.841143 361.691429 342.820571 306.249143 366.116571 311.259429c-4.754286-37.010286-8.192-70.4-6.509714-88.100571 5.851429-62.098286 63.780571-126.976 153.014857-131.730286 104.96 4.717714 146.541714 69.558857 152.393143 131.657143 1.718857 17.700571-2.048 51.126857-6.802286 88.064 23.332571-4.937143 13.165714 50.432 12.032 68.169143-1.024 18.395429-7.497143 47.140571-26.550857 41.472-9.545143 75.629714-40.082286 99.547429-40.082286 99.547429l0.731429 79.945143c0 0 19.309714 11.373714 100.864 46.262857 81.554286 34.925714 55.990857 8.813714 122.404571 42.934857C932.571429 743.460571 932.571429 891.757714 932.534857 891.757714L932.534857 891.757714z" />

</svg>
