<?xml version="1.0" standalone="no"?>
<!DOCTYPE svg PUBLIC "-//W3C//DTD SVG 20010904//EN"
 "http://www.w3.org/TR/2001/REC-SVG-20010904/DTD/svg10.dtd">
<svg version="1.0" xmlns="http://www.w3.org/2000/svg"
 width="895.000000pt" height="777.000000pt" viewBox="0 0 895.000000 777.000000"
 preserveAspectRatio="xMidYMid meet">
<metadata>
Created by potrace 1.13, written by Peter Selinger 2001-2015
</metadata>
<g transform="translate(0.000000,777.000000) scale(0.100000,-0.100000)"
fill="#000000" stroke="none">
<path d="M2709 7759 c-170 -25 -350 -160 -420 -315 -44 -98 -49 -143 -49 -471
l0 -313 -862 0 c-949 0 -938 0 -1066 -62 -80 -39 -203 -157 -245 -235 -15 -28
-36 -86 -47 -129 -20 -76 -20 -120 -20 -2898 0 -2415 2 -2831 15 -2889 44
-208 219 -384 425 -427 41 -8 1082 -10 4065 -8 l4010 3 71 28 c101 40 198 118
259 208 59 87 83 152 96 269 6 53 8 1138 7 2880 l-3 2795 -22 65 c-52 151
-153 269 -285 335 -135 66 -120 65 -1070 65 l-858 0 0 303 c0 335 -9 400 -67
510 -62 116 -197 224 -343 273 -53 18 -127 19 -1795 20 -957 1 -1765 -2 -1796
-7z m3441 -824 l0 -275 -1675 0 -1675 0 0 275 0 275 1675 0 1675 0 0 -275z"/>
</g>
</svg>
