<?xml version="1.0" standalone="no"?>
<!DOCTYPE svg PUBLIC "-//W3C//DTD SVG 20010904//EN"
 "http://www.w3.org/TR/2001/REC-SVG-20010904/DTD/svg10.dtd">
<svg version="1.0" xmlns="http://www.w3.org/2000/svg"
 width="777.000000pt" height="777.000000pt" viewBox="0 0 777.000000 777.000000"
 preserveAspectRatio="xMidYMid meet">
<metadata>
Created by potrace 1.13, written by Peter Selinger 2001-2015
</metadata>
<g transform="translate(0.000000,777.000000) scale(0.100000,-0.100000)"
fill="#000000" stroke="none">
<path d="M443 7755 c-154 -34 -313 -158 -381 -297 -64 -131 -62 -80 -62 -1434
0 -830 3 -1250 11 -1290 29 -162 152 -324 301 -398 141 -69 99 -67 1479 -64
l1234 3 78 28 c182 64 300 182 364 364 l28 78 3 1234 c3 1380 5 1338 -64 1479
-74 149 -236 272 -398 301 -96 18 -2513 13 -2593 -4z"/>
<path d="M4725 7758 c-27 -5 -88 -27 -134 -49 -163 -79 -276 -230 -307 -413
-12 -70 -14 -278 -12 -1317 l3 -1234 28 -78 c64 -182 182 -300 364 -364 l78
-28 1234 -3 c1380 -3 1338 -5 1479 64 149 74 272 236 301 398 8 40 11 460 11
1290 0 1354 2 1303 -62 1434 -44 91 -159 206 -250 250 -131 64 -79 62 -1443
61 -727 -1 -1261 -5 -1290 -11z"/>
<path d="M463 3485 c-172 -31 -326 -148 -401 -306 -23 -46 -45 -111 -51 -143
-8 -40 -11 -460 -11 -1290 0 -1354 -2 -1303 62 -1434 44 -91 159 -206 250
-250 131 -64 80 -62 1434 -62 830 0 1250 3 1290 11 162 29 324 152 398 301 69
141 67 99 64 1479 l-3 1234 -28 78 c-64 182 -182 300 -364 364 l-78 28 -1245
2 c-996 1 -1259 -1 -1317 -12z"/>
<path d="M4760 3489 c-213 -31 -383 -174 -457 -386 l-28 -78 -3 -1234 c-3
-1380 -5 -1338 64 -1479 74 -149 236 -272 398 -301 40 -8 460 -11 1290 -11
1354 0 1303 -2 1434 62 91 44 206 159 250 250 64 131 62 80 62 1434 0 830 -3
1250 -11 1290 -29 162 -152 324 -301 397 -138 68 -97 66 -1438 65 -663 0
-1230 -4 -1260 -9z"/>
</g>
</svg>
